<svg xmlns="http://www.w3.org/2000/svg" viewBox="0 0 64 64" fill="none" role="img" aria-label="Vision-Language-Action">
  <title>Vision-Language-Action</title>
  <!-- Microphone/Voice -->
  <rect x="28" y="8" width="8" height="20" rx="4" fill="#1a365d" stroke="#3182ce" stroke-width="2"/>
  <path d="M22 22 C22 30 26 34 32 34 C38 34 42 30 42 22" stroke="#3182ce" stroke-width="2" fill="none"/>
  <line x1="32" y1="34" x2="32" y2="40" stroke="#3182ce" stroke-width="2"/>
  <line x1="26" y1="40" x2="38" y2="40" stroke="#3182ce" stroke-width="2"/>

  <!-- Sound waves -->
  <path d="M18 18 C14 22 14 26 18 30" stroke="#00d4ff" stroke-width="1.5" fill="none" opacity="0.7"/>
  <path d="M14 16 C8 22 8 28 14 34" stroke="#00d4ff" stroke-width="1.5" fill="none" opacity="0.4"/>
  <path d="M46 18 C50 22 50 26 46 30" stroke="#00d4ff" stroke-width="1.5" fill="none" opacity="0.7"/>
  <path d="M50 16 C56 22 56 28 50 34" stroke="#00d4ff" stroke-width="1.5" fill="none" opacity="0.4"/>

  <!-- Arrow pointing down (voice to action) -->
  <line x1="32" y1="44" x2="32" y2="52" stroke="#3182ce" stroke-width="2"/>
  <path d="M26 48 L32 56 L38 48" stroke="#3182ce" stroke-width="2" fill="none"/>

  <!-- Robot arm/action indicator -->
  <path d="M20 56 L28 56 L32 52 L36 56 L44 56" stroke="#1a365d" stroke-width="3" fill="none"/>
  <circle cx="20" cy="56" r="3" fill="#3182ce"/>
  <circle cx="44" cy="56" r="3" fill="#3182ce"/>

  <!-- Connection dots -->
  <circle cx="32" cy="44" r="2" fill="#00d4ff"/>
</svg>
